<svg width="27" height="29" viewBox="0 0 27 29" fill="none" xmlns="http://www.w3.org/2000/svg">
<path d="M1.29053 6.99512H26.1477" stroke="#A85E58" stroke-width="1.5" stroke-linecap="round" stroke-linejoin="round"/>
<path d="M4.39771 6.99512H23.0406V25.638C23.0406 26.1873 22.8222 26.7143 22.4338 27.1027C22.0454 27.4911 21.5185 27.7094 20.9691 27.7094H6.46913C5.91975 27.7094 5.39288 27.4911 5.00441 27.1027C4.61595 26.7143 4.39771 26.1873 4.39771 25.638V6.99512Z" stroke="#A85E58" stroke-width="1.5" stroke-linecap="round" stroke-linejoin="round"/>
<path d="M8.54053 6.99505V5.95933C8.54053 4.58589 9.08612 3.26869 10.0573 2.29752C11.0285 1.32636 12.3457 0.780762 13.7191 0.780762C15.0925 0.780762 16.4097 1.32636 17.3809 2.29752C18.3521 3.26869 18.8977 4.58589 18.8977 5.95933V6.99505" stroke="#A85E58" stroke-width="1.5" stroke-linecap="round" stroke-linejoin="round"/>
<path d="M10.6119 13.2124V21.5013" stroke="#A85E58" stroke-width="1.5" stroke-linecap="round" stroke-linejoin="round"/>
<path d="M16.8263 13.2124V21.5013" stroke="#A85E58" stroke-width="1.5" stroke-linecap="round" stroke-linejoin="round"/>
</svg>
