<svg width="33" height="33" viewBox="0 0 33 33" fill="none" xmlns="http://www.w3.org/2000/svg">
<path d="M1.27539 3.35714V29.2857C1.27539 30.5876 2.33072 31.6429 3.63253 31.6429H29.5611C30.863 31.6429 31.9182 30.5876 31.9182 29.2857V3.35714C31.9182 2.05533 30.863 1 29.5611 1H3.63253C2.33072 1 1.27539 2.05533 1.27539 3.35714Z" stroke="black" stroke-width="1.5" stroke-linecap="round" stroke-linejoin="round"/>
<path d="M10.704 25.7499V13.9642" stroke="black" stroke-width="1.5" stroke-linecap="round" stroke-linejoin="round"/>
<path d="M10.7039 13.9643C12.6567 13.9643 14.2396 12.3813 14.2396 10.4285C14.2396 8.47581 12.6567 6.89282 10.7039 6.89282C8.7512 6.89282 7.16821 8.47581 7.16821 10.4285C7.16821 12.3813 8.7512 13.9643 10.7039 13.9643Z" stroke="black" stroke-width="1.5" stroke-linecap="round" stroke-linejoin="round"/>
<path d="M22.4896 6.89282V13.9643" stroke="black" stroke-width="1.5" stroke-linecap="round" stroke-linejoin="round"/>
<path d="M22.4896 21.0358V25.7501" stroke="black" stroke-width="1.5" stroke-linecap="round" stroke-linejoin="round"/>
<path d="M22.4897 21.0357C24.4424 21.0357 26.0254 19.4527 26.0254 17.4999C26.0254 15.5472 24.4424 13.9642 22.4897 13.9642C20.537 13.9642 18.954 15.5472 18.954 17.4999C18.954 19.4527 20.537 21.0357 22.4897 21.0357Z" stroke="black" stroke-width="1.5" stroke-linecap="round" stroke-linejoin="round"/>
</svg>
